<svg width="400" height="100">
	<rect width="400" height="100" stroke-width="6px" stroke="#404040" fill="#757575"/>
	<g fill="#353535">
		<polygon points="13,48 23,48 23,20 51,20 51,10 13,10"/>
		<polygon points="13,52 23,52 23,80 51,80 51,90 13,90"/>
		<polygon points="55,20 55,10 93,10 93,48 83,48 83,20"/>
		<polygon points="55,80 55,90 93,90 93,52 83,52 83,80"/>
	</g>
	<g fill="#505050">
		<polygon points="15,46 21,46 21,18 49,18 49,12 15,12"/>
		<polygon points="15,54 21,54 21,82 49,82 49,88 15,88"/>
		<polygon points="57,18 57,12 91,12 91,46 85,46 85,18"/>
		<polygon points="57,82 57,88 91,88 91,54 85,54 85,82"/>
	</g>
</svg>