<svg width="400" height="100">
	<rect width="400" height="100" stroke-width="3px" stroke="#404040" fill="#707070"/>
	<g fill="#353535">
		<polygon points="12,47 22,47 22,19 50,19 50,9 12,9"/>
		<polygon points="12,53 22,53 22,81 50,81 50,91 12,91"/>
		<polygon points="56,19 56,9 94,9 94,47 84,47 84,19"/>
		<polygon points="56,81 56,91 94,91 94,53 84,53 84,81"/>
	</g>
	<g fill="#505050">
		<polygon points="14,45 20,45 20,17 48,17 48,11 14,11"/>
		<polygon points="14,55 20,55 20,83 48,83 48,89 14,89"/>
		<polygon points="58,17 58,11 92,11 92,45 86,45 86,17"/>
		<polygon points="58,83 58,89 92,89 92,55 86,55 86,83"/>
	</g>
</svg>