<svg width="400" height="100">
	<rect width="400" height="100" fill="#656565"/>
	<g fill="#353535">
		<polygon points="11,46 21,46 21,18 49,18 49,8 11,8"/>
		<polygon points="11,54 21,54 21,82 49,82 49,92 11,92"/>
		<polygon points="57,18 57,8 95,8 95,46 85,46 85,18"/>
		<polygon points="57,82 57,92 95,92 95,54 85,54 85,82"/>
	</g>
	<g fill="#505050">
		<polygon points="13,44 19,44 19,16 47,16 47,10 13,10"/>
		<polygon points="13,56 19,56 19,84 47,84 47,90 13,90"/>
		<polygon points="59,16 59,10 93,10 93,44 87,44 87,16"/>
		<polygon points="59,84 59,90 93,90 93,56 87,56 87,84"/>
	</g>
</svg>